<?xml version="1.0" encoding="UTF-8" standalone="no"?>
<svg
   xmlns:dc="http://purl.org/dc/elements/1.1/"
   xmlns:cc="http://creativecommons.org/ns#"
   xmlns:rdf="http://www.w3.org/1999/02/22-rdf-syntax-ns#"
   xmlns:svg="http://www.w3.org/2000/svg"
   xmlns="http://www.w3.org/2000/svg"
   xmlns:sodipodi="http://sodipodi.sourceforge.net/DTD/sodipodi-0.dtd"
   xmlns:inkscape="http://www.inkscape.org/namespaces/inkscape"
   xml:space="preserve"
   height="34"
   viewBox="0 0 62.001102 34"
   width="62"
   version="1.1"
   y="0px"
   x="0px"
   enable-background="new 0 0 595.275 311.111"
   id="svg2"
   inkscape:version="0.91 r"
   sodipodi:docname="logo-icon.svg"><metadata
     id="metadata10"><rdf:RDF><cc:Work
         rdf:about=""><dc:format>image/svg+xml</dc:format><dc:type
           rdf:resource="http://purl.org/dc/dcmitype/StillImage" /></cc:Work></rdf:RDF></metadata><defs
     id="defs8" /><sodipodi:namedview
     pagecolor="#ffffff"
     bordercolor="#666666"
     borderopacity="1"
     objecttolerance="10"
     gridtolerance="10"
     guidetolerance="10"
     inkscape:pageopacity="0"
     inkscape:pageshadow="2"
     inkscape:window-width="1600"
     inkscape:window-height="848"
     id="namedview6"
     showgrid="false"
     inkscape:zoom="6.1130522"
     inkscape:cx="-10.731845"
     inkscape:cy="-0.43022236"
     inkscape:window-x="0"
     inkscape:window-y="0"
     inkscape:window-maximized="1"
     inkscape:current-layer="svg2" /><path
     inkscape:connector-curvature="0"
     id="path4150"
     style="fill:#ffffff;fill-opacity:1;fill-rule:nonzero;stroke:none"
     d="m 36.987245,30.268825 c -2.842303,0 -5.428201,-1.692368 -6.606931,-4.220947 0.502183,0.03492 1.003817,0.02707 1.506619,-0.02178 1.068554,1.798705 2.982872,2.897622 5.100312,2.897622 3.274121,0 5.937971,-2.663849 5.937971,-5.938117 0,-2.11773 -1.0995,-4.032339 -2.89861,-5.100893 0.02879,-0.295376 0.04331,-0.591152 0.04331,-0.883973 0,-0.206987 -0.0073,-0.414671 -0.0217,-0.622499 2.529446,1.178325 4.222103,3.764189 4.222103,6.607365 0,4.015955 -3.2673,7.283228 -7.283105,7.283228 z M 19.023539,17.087694 c 0.895222,0.871711 1.975062,1.544133 3.159371,1.958658 0.789307,3.287224 3.418489,5.91571 6.70586,6.70418 0.414854,1.184016 1.087529,2.263849 1.95924,3.158783 -6.482922,-0.08168 -11.741364,-5.338952 -11.824471,-11.821621 z m -1.291092,-6.071681 c 0,-4.0156651 3.266843,-7.2824914 7.282364,-7.2824914 2.842922,0 5.42893,1.6923678 6.607838,4.2209373 -0.501669,-0.034816 -1.002865,-0.027351 -1.504791,0.021638 -1.068408,-1.7991095 -2.983164,-2.8986094 -5.101479,-2.8986094 -3.273976,0 -5.937534,2.6634112 -5.937534,5.9372415 0,2.117584 1.098913,4.032047 2.897515,5.101039 -0.02893,0.294792 -0.04351,0.591043 -0.04351,0.885106 0,0.207279 0.0073,0.4154 0.02184,0.623374 -2.529152,-1.178472 -4.222238,-3.764772 -4.222238,-6.60824 z m 22.046664,8.194412 c 1.156248,0.866272 1.847061,2.222355 1.847061,3.705909 0,2.558056 -2.081129,4.639036 -4.638782,4.639036 -1.483079,0 -2.838907,-0.690522 -3.705325,-1.846476 3.158803,-0.824526 5.67296,-3.339263 6.497046,-6.498469 z M 36.98739,18.278136 c 0.557249,0 1.097092,0.09652 1.610403,0.287529 -0.637754,2.962508 -2.998709,5.323867 -5.960891,5.961763 -0.191188,-0.513603 -0.28782,-1.053592 -0.28782,-1.611094 0,-2.55751 2.080653,-4.638198 4.638308,-4.638198 z M 29.366064,9.3359056 c 0.19115,0.513458 0.287636,1.0534464 0.287636,1.6108414 0,2.557801 -2.080945,4.638746 -4.638743,4.638746 -0.557067,0 -1.096653,-0.09638 -1.609822,-0.28724 0.637353,-2.962651 2.99842,-5.3243014 5.960929,-5.9623474 z M 22.224219,14.65105 c -1.155919,-0.866564 -1.846435,-2.222354 -1.846435,-3.705579 0,-2.5576569 2.080941,-4.638491 4.638595,-4.638491 1.484101,0 2.840185,0.6908137 3.706346,1.847169 -3.15924,0.8237956 -5.673981,3.337841 -6.498506,6.496901 z m 9.096635,10.043298 c -0.10678,0.0045 -0.213414,0.0066 -0.319461,0.0066 -4.283962,0 -7.769162,-3.485381 -7.769162,-7.769304 0,-0.106085 0.002,-0.21257 0.0065,-0.319169 0.571626,0.180022 1.166502,0.270818 1.777759,0.270818 3.274126,0 5.937682,-2.663705 5.937682,-5.93779 0,-0.610714 -0.09065,-1.2051494 -0.270414,-1.7763384 0.106195,-0.0044 0.212097,-0.0066 0.317601,-0.0066 4.284104,0 7.769596,3.4850894 7.769596,7.7690484 0,0.105612 -0.002,0.211662 -0.0065,0.318146 -0.571481,-0.179872 -1.166208,-0.270703 -1.777066,-0.270703 -3.273941,0 -5.937389,2.663446 -5.937389,5.937279 0,0.611403 0.09079,1.206387 0.270853,1.778014 z M 42.979262,16.775786 C 42.08405,15.90437 41.004219,15.231948 39.820018,14.817278 39.031002,11.529907 36.401783,8.9014186 33.114159,8.1129475 32.699196,6.9289316 32.026483,5.8490993 31.154918,4.9541789 c 6.48296,0.081672 11.741211,5.3393791 11.824344,11.8216071 z m 1.217228,1.582195 c 0.05247,-0.486415 0.08284,-0.966372 0.08284,-1.426369 0,-7.3211694 -5.956509,-13.2774979 -13.277934,-13.2774979 -0.494774,0 -0.993708,0.031352 -1.519721,0.091634 C 28.16194,2.9430457 26.623941,2.4739278 25.014814,2.4344432 20.469307,2.3229546 16.533452,6.2242847 16.433386,11.016013 c -0.03522,1.686087 0.469704,3.293497 1.35837,4.653596 -0.04144,0.430217 -0.06824,0.85485 -0.06824,1.262003 0,7.321425 5.956496,13.277768 13.278068,13.277768 0.41726,0 0.841055,-0.0268 1.277694,-0.06957 1.371486,0.904487 2.998967,1.428078 4.708012,1.428078 4.73213,0 8.582153,-3.85002 8.582153,-8.582298 0,-1.675251 -0.501342,-3.273392 -1.372908,-4.627615" /></svg>