<?xml version="1.0" encoding="UTF-8" standalone="no"?>
<!-- Created with Inkscape (http://www.inkscape.org/) -->

<svg
   xmlns:dc="http://purl.org/dc/elements/1.1/"
   xmlns:cc="http://creativecommons.org/ns#"
   xmlns:rdf="http://www.w3.org/1999/02/22-rdf-syntax-ns#"
   xmlns:svg="http://www.w3.org/2000/svg"
   xmlns="http://www.w3.org/2000/svg"
   xmlns:sodipodi="http://sodipodi.sourceforge.net/DTD/sodipodi-0.dtd"
   xmlns:inkscape="http://www.inkscape.org/namespaces/inkscape"
   width="27"
   height="27"
   viewBox="0 0 27 27"
   id="svg4173"
   version="1.1"
   inkscape:version="0.91 r"
   sodipodi:docname="favicon-touch.svg">
  <defs
     id="defs4175" />
  <sodipodi:namedview
     id="base"
     pagecolor="#ffffff"
     bordercolor="#666666"
     borderopacity="1.0"
     inkscape:pageopacity="0.0"
     inkscape:pageshadow="2"
     inkscape:zoom="11.2"
     inkscape:cx="13.403032"
     inkscape:cy="9.9367361"
     inkscape:document-units="px"
     inkscape:current-layer="layer1"
     showgrid="false"
     units="px"
     fit-margin-top="0"
     fit-margin-left="0"
     fit-margin-right="0"
     fit-margin-bottom="0"
     inkscape:window-width="1600"
     inkscape:window-height="848"
     inkscape:window-x="0"
     inkscape:window-y="0"
     inkscape:window-maximized="1" />
  <metadata
     id="metadata4178">
    <rdf:RDF>
      <cc:Work
         rdf:about="">
        <dc:format>image/svg+xml</dc:format>
        <dc:type
           rdf:resource="http://purl.org/dc/dcmitype/StillImage" />
        <dc:title></dc:title>
      </cc:Work>
    </rdf:RDF>
  </metadata>
  <g
     inkscape:label="Layer 1"
     inkscape:groupmode="layer"
     id="layer1"
     transform="translate(128.5,-518.86218)">
    <rect
       style="fill:#006eab;fill-opacity:1;stroke:none;stroke-width:0.70001239;stroke-linecap:round;stroke-linejoin:round;stroke-miterlimit:4;stroke-dasharray:none;stroke-opacity:1"
       id="rect4133"
       width="27"
       height="27"
       x="-128.5"
       y="518.86218"
       inkscape:export-xdpi="106.66666"
       inkscape:export-ydpi="106.66666" />
    <path
       inkscape:connector-curvature="0"
       id="path4150-3"
       style="fill:#ffffff;fill-opacity:1;fill-rule:nonzero;stroke:none"
       d="m -110.42512,542.50186 c -2.17202,0 -4.14808,-1.29326 -5.04883,-3.22553 0.38376,0.0267 0.76709,0.0207 1.15132,-0.0166 0.81655,1.37452 2.27941,2.21428 3.89751,2.21428 2.50198,0 4.53762,-2.03563 4.53762,-4.53774 0,-1.6183 -0.84021,-3.08139 -2.21504,-3.89795 0.022,-0.22572 0.0331,-0.45174 0.0331,-0.67551 0,-0.15817 -0.005,-0.31688 -0.0166,-0.47569 1.93294,0.90044 3.22643,2.87648 3.22643,5.04915 0,3.06888 -2.49679,5.56564 -5.56554,5.56564 z m -13.72735,-10.07264 c 0.6841,0.66614 1.50928,1.17998 2.4143,1.49675 0.60317,2.512 2.61231,4.52061 5.12443,5.12314 0.31701,0.90479 0.83105,1.72997 1.49719,2.41385 -4.95406,-0.0624 -8.97241,-4.07987 -9.03592,-9.03374 z m -0.98661,-4.6398 c 0,-3.06865 2.49642,-5.56507 5.56497,-5.56507 2.17247,0 4.14862,1.29326 5.04952,3.22552 -0.38336,-0.0266 -0.76637,-0.0209 -1.14992,0.0165 -0.81645,-1.37483 -2.27965,-2.21504 -3.8984,-2.21504 -2.50189,0 -4.5373,2.03531 -4.5373,4.53707 0,1.6182 0.83976,3.08118 2.2142,3.89807 -0.0221,0.22527 -0.0333,0.45166 -0.0333,0.67637 0,0.1584 0.006,0.31744 0.0167,0.47636 -1.93271,-0.90055 -3.22651,-2.87693 -3.22651,-5.04982 z m 16.84742,6.26193 c 0.88357,0.66198 1.41146,1.69826 1.41146,2.83195 0,1.95479 -1.59033,3.54502 -3.54481,3.54502 -1.13333,0 -2.16942,-0.52768 -2.83151,-1.41103 2.41387,-0.63008 4.33511,-2.55177 4.96486,-4.96594 z m -2.13335,-0.71243 c 0.42583,0 0.83836,0.0738 1.23061,0.21972 -0.48735,2.26387 -2.29152,4.06835 -4.55514,4.55581 -0.14609,-0.39248 -0.21993,-0.80512 -0.21993,-1.23115 0,-1.95438 1.58997,-3.54438 3.54446,-3.54438 z m -5.82401,-6.83339 c 0.14608,0.39237 0.21981,0.80501 0.21981,1.23096 0,1.95459 -1.5902,3.54479 -3.54479,3.54479 -0.42569,0 -0.83804,-0.0737 -1.23018,-0.2195 0.48704,-2.26397 2.2913,-4.06867 4.55516,-4.55625 z m -5.45758,4.06168 c -0.88333,-0.6622 -1.411,-1.69826 -1.411,-2.8317 0,-1.95448 1.5902,-3.5446 3.54469,-3.5446 1.1341,0 2.17038,0.5279 2.83227,1.41155 -2.41419,0.62953 -4.33588,2.55069 -4.96596,4.96475 z m 6.95138,7.6748 c -0.0816,0.003 -0.16308,0.005 -0.24412,0.005 -3.27368,0 -5.93697,-2.66343 -5.93697,-5.93708 0,-0.0811 0.001,-0.16244 0.005,-0.2439 0.43683,0.13757 0.89141,0.20695 1.35851,0.20695 2.50199,0 4.53741,-2.03553 4.53741,-4.53749 0,-0.46669 -0.0692,-0.92094 -0.20665,-1.35742 0.0812,-0.003 0.16208,-0.005 0.24271,-0.005 3.27378,0 5.93729,2.6632 5.93729,5.93688 0,0.0807 -0.002,0.16175 -0.005,0.24312 -0.43671,-0.13746 -0.89117,-0.20687 -1.35797,-0.20687 -2.50186,0 -4.53718,2.03533 -4.53718,4.5371 0,0.46722 0.0694,0.92189 0.20697,1.35871 z m 8.90901,-6.05114 c -0.68408,-0.66591 -1.50926,-1.17976 -2.41419,-1.49663 -0.60294,-2.51212 -2.61212,-4.52073 -5.12442,-5.12326 -0.31712,-0.90479 -0.83118,-1.72997 -1.4972,-2.41384 4.95409,0.0624 8.9723,4.0802 9.03581,9.03373 z m 0.93018,1.20907 c 0.0401,-0.37171 0.0633,-0.73848 0.0633,-1.08999 0,-5.59463 -4.5518,-10.14628 -10.14662,-10.14628 -0.37809,0 -0.75936,0.024 -1.16133,0.07 -1.0085,-0.6134 -2.18379,-0.97189 -3.41344,-1.00206 -3.47355,-0.0852 -6.48122,2.89608 -6.55768,6.55778 -0.0269,1.28846 0.35894,2.5168 1.03803,3.55615 -0.0317,0.32875 -0.0521,0.65325 -0.0521,0.96438 0,5.59482 4.55178,10.14649 10.14672,10.14649 0.31885,0 0.64271,-0.0205 0.97637,-0.0532 1.04805,0.69118 2.29172,1.09129 3.59773,1.09129 3.61615,0 6.55823,-2.94207 6.55823,-6.55834 0,-1.28018 -0.38311,-2.50143 -1.04914,-3.53629"
       inkscape:export-xdpi="106.66666"
       inkscape:export-ydpi="106.66666" />
  </g>
</svg>
